<svg id="Capa_1" enable-background="new 0 0 512 512" height="512" viewBox="0 0 512 512" width="512" xmlns="http://www.w3.org/2000/svg"><g><g><path d="m440.371 27.551h-368.742c-35.417 0-64.129 28.712-64.129 64.129v240.484c0 35.417 28.712 56.629 64.129 56.629l78.216 7.5c6.378 0 12.495 2.533 17.004 7.043l75.427 75.427c7.579 7.579 19.867 7.579 27.446 0l75.427-75.427c4.51-4.51 10.627-7.043 17.004-7.043h78.216c35.417 0 64.129-28.712 64.129-64.129v-240.484c.002-35.417-28.71-64.129-64.127-64.129z" fill="#ff7e92"/><path d="m315.832 115.864c-21.065-1.367-40.321 6.217-54.463 19.271-3.043 2.809-7.694 2.809-10.737 0-14.143-13.054-33.398-20.638-54.463-19.271-34.776 2.256-64.052 29.74-67.938 64.372-8.237 73.416 90.039 137.673 119.54 155.209 5.091 3.026 11.369 3.026 16.46 0 29.501-17.536 127.777-81.793 119.54-155.209-3.887-34.631-33.163-62.115-67.939-64.372z" fill="#fff"/><path d="m277.567 322.685c-13.59-7.652-132.462-76.916-124.031-152.099v.004c1.863-16.6 10.271-31.747 23.673-42.652l14.19-11.546c-32.644 4.339-59.462 30.812-63.168 63.844-8.236 73.416 90.04 137.674 119.54 155.209 5.09 3.026 11.369 3.026 16.459 0 4.349-2.584 10.216-6.208 16.99-10.702z" fill="#ffdbde"/><path d="m183.855 386.333c-8.948-8.952-21.348-14.087-34.006-14.087h-78.22c-22.099 0-40.081-17.982-40.081-40.081v-290.502c-14.647 11.753-24.048 29.776-24.048 50.017v240.484c0 35.417 28.712 64.129 64.129 64.129h78.216c6.378 0 12.496 2.533 17.005 7.043l75.427 75.427c7.58 7.579 19.866 7.579 27.446 0l3.264-3.265z" fill="#ff5f7a"/></g><g><path d="m440.371 20.052h-368.742c-39.496 0-71.629 32.132-71.629 71.628v240.484c0 39.496 32.133 71.629 71.629 71.629h16.032c4.142 0 7.5-3.358 7.5-7.5s-3.358-7.5-7.5-7.5h-16.032c-31.225 0-56.629-25.404-56.629-56.629v-240.484c0-31.225 25.404-56.629 56.629-56.629h368.742c31.225.001 56.629 25.404 56.629 56.629v240.484c0 31.225-25.404 56.629-56.629 56.629h-78.216c-8.427 0-16.35 3.282-22.308 9.24l-75.428 75.427c-2.249 2.249-5.239 3.488-8.419 3.488s-6.17-1.239-8.419-3.488l-75.427-75.427c-5.958-5.958-13.881-9.24-22.308-9.24h-30.12c-4.142 0-7.5 3.358-7.5 7.5s3.358 7.5 7.5 7.5h30.12c4.42 0 8.576 1.721 11.702 4.847l75.427 75.427c5.082 5.082 11.839 7.881 19.026 7.881s13.944-2.799 19.026-7.881l75.427-75.427c3.125-3.125 7.281-4.847 11.702-4.847h78.216c39.496 0 71.629-32.133 71.629-71.629v-240.484c-.001-39.496-32.134-71.628-71.63-71.628z"/><path d="m201.032 123.206c18.83 0 36.813 8.158 49.339 22.382 1.424 1.617 3.475 2.543 5.629 2.543s4.205-.927 5.629-2.543c12.525-14.224 30.509-22.382 49.339-22.382 12.587 0 24.818 3.564 35.371 10.306 3.49 2.23 8.128 1.208 10.358-2.282s1.209-8.128-2.282-10.358c-12.969-8.287-27.993-12.667-43.447-12.667-20.446 0-40.071 7.818-54.968 21.683-14.896-13.865-34.521-21.683-54.968-21.683-44.548 0-80.791 36.243-80.791 80.791 0 36.483 22.458 74.23 66.748 112.194 32.313 27.696 64.13 44.861 65.469 45.578 1.106.592 2.324.889 3.542.889s2.436-.296 3.542-.889c1.339-.717 33.156-17.882 65.468-45.578 44.291-37.964 66.748-75.711 66.748-112.194 0-13.81-3.547-27.442-10.256-39.424-2.024-3.614-6.594-4.902-10.208-2.879-3.614 2.024-4.903 6.595-2.879 10.208 5.459 9.748 8.344 20.846 8.344 32.095 0 69.555-100.455 130.879-120.758 142.558-20.304-11.679-120.758-73.002-120.758-142.558-.001-36.276 29.512-65.79 65.789-65.79z"/></g></g></svg>